<svg viewBox="0 0 100 100" xmlns="http://www.w3.org/2000/svg">
  <defs>
    <linearGradient id="romanceGrad" x1="0%" y1="0%" x2="100%" y2="100%">
      <stop offset="0%" style="stop-color:#fd79a8;stop-opacity:1" />
      <stop offset="100%" style="stop-color:#e84393;stop-opacity:1" />
    </linearGradient>
  </defs>
  <rect width="100" height="100" fill="url(#romanceGrad)" rx="15"/>
  <path d="M50 70 C40 60, 25 45, 25 35 C25 25, 35 20, 40 25 C45 20, 55 20, 60 25 C65 20, 75 25, 75 35 C75 45, 60 60, 50 70 Z" fill="rgba(255,255,255,0.95)"/>
  <circle cx="35" cy="35" r="3" fill="#fd79a8"/>
  <circle cx="65" cy="35" r="3" fill="#fd79a8"/>
  <path d="M20 20 L25 15 M80 20 L75 15 M20 80 L25 85 M80 80 L75 85" stroke="rgba(255,255,255,0.7)" stroke-width="2"/>
</svg>