<svg xmlns="http://www.w3.org/2000/svg" viewBox="0 0 200 200" width="200" height="200">
  <defs>
    <linearGradient id="romanticGradient" x1="0%" y1="0%" x2="100%" y2="100%">
      <stop offset="0%" style="stop-color:#e91e63;stop-opacity:1" />
      <stop offset="100%" style="stop-color:#ad1457;stop-opacity:1" />
    </linearGradient>
  </defs>
  
  <!-- Background -->
  <rect width="200" height="200" rx="20" fill="url(#romanticGradient)"/>
  
  <!-- Hearts -->
  <path d="M60,80 C50,70 35,65 35,80 C35,95 60,115 60,115 C60,115 85,95 85,80 C85,65 70,70 60,80 Z" 
        fill="#fff" opacity="0.9"/>
  <path d="M140,60 C135,55 125,52 125,60 C125,68 140,80 140,80 C140,80 155,68 155,60 C155,52 145,55 140,60 Z" 
        fill="#fff" opacity="0.7"/>
  <path d="M170,100 C167,97 160,95 160,100 C160,105 170,112 170,112 C170,112 180,105 180,100 C180,95 173,97 170,100 Z" 
        fill="#fff" opacity="0.5"/>
  
  <!-- Ring -->
  <circle cx="100" cy="120" r="20" fill="none" stroke="#ffd700" stroke-width="4"/>
  <circle cx="100" cy="120" r="15" fill="none" stroke="#fff" stroke-width="2" opacity="0.5"/>
  <circle cx="100" cy="108" r="5" fill="#ffd700"/>
  <circle cx="100" cy="108" r="3" fill="#fff"/>
  
  <!-- Website elements -->
  <rect x="30" y="150" width="140" height="30" rx="5" fill="white" opacity="0.9"/>
  <circle cx="45" cy="160" r="3" fill="#e91e63"/>
  <circle cx="55" cy="160" r="3" fill="#f39c12"/>
  <circle cx="65" cy="160" r="3" fill="#27ae60"/>
  
  <!-- Romantic text -->
  <text x="100" y="170" font-family="cursive" font-size="12" fill="#e91e63" text-anchor="middle">Will you marry me?</text>
  
  <!-- Sparkles/Stars -->
  <g stroke="#fff" stroke-width="1" fill="#fff" opacity="0.8">
    <path d="M40,40 L42,46 L48,48 L42,50 L40,56 L38,50 L32,48 L38,46 Z"/>
    <path d="M160,40 L161,44 L165,45 L161,46 L160,50 L159,46 L155,45 L159,44 Z"/>
    <path d="M180,150 L181,153 L184,154 L181,155 L180,158 L179,155 L176,154 L179,153 Z"/>
    <path d="M25,120 L26,122 L28,123 L26,124 L25,126 L24,124 L22,123 L24,122 Z"/>
  </g>
  
  <!-- Multimedia indicator -->
  <circle cx="150" cy="165" r="8" fill="#e91e63"/>
  <polygon points="147,162 147,168 153,165" fill="white"/>
</svg>